<svg xmlns="http://www.w3.org/2000/svg" viewBox="0 0 360 306"><defs><style>.cls-1{fill:#222;}.cls-1,.cls-2{stroke:#fbfbfb;stroke-miterlimit:10;}.cls-2{fill:#fb923c;}.cls-3{fill:#fbfbfb;}</style></defs><g id="Layer_2" data-name="Layer 2"><g id="Layer_1-2" data-name="Layer 1"><polygon class="cls-1" points="253.72 1.5 167.25 1.5 80.79 1.5 124.02 123.46 167.25 245.41 210.49 123.46 253.72 1.5"/><polygon class="cls-1" points="177.5 305.5 91.03 305.5 4.57 305.5 47.8 183.54 91.03 61.59 134.27 183.54 177.5 305.5"/><polygon class="cls-2" points="86.97 43.5 0.5 43.5 0.5 287.42 43.73 165.46 86.97 43.5"/><polygon class="cls-2" points="273.03 0.5 359.5 0.5 359.5 244.41 316.27 122.46 273.03 0.5"/><polygon class="cls-1" points="350.28 248.5 263.81 248.5 177.34 248.5 220.57 126.54 263.81 4.58 307.04 126.54 350.28 248.5"/><path class="cls-3" d="M91.8,272.05a42.35,42.35,0,0,1-18.13-3.68,28.72,28.72,0,0,1-12.29-10.52,29.59,29.59,0,0,1-4.44-16.47v-3.55H73.42v3.55q0,8,4.94,12c3.3,2.67,7.77,4,13.44,4s10-1.14,12.86-3.43a10.74,10.74,0,0,0,4.25-8.74,8.46,8.46,0,0,0-2.1-6,15.2,15.2,0,0,0-6.08-3.74A77.53,77.53,0,0,0,91,232.76l-2.92-.63A74.4,74.4,0,0,1,72.47,227a24.6,24.6,0,0,1-10-8.17Q59,213.75,59,205.64a24.31,24.31,0,0,1,3.87-13.88,24.77,24.77,0,0,1,10.9-8.87,40.65,40.65,0,0,1,16.54-3.11A42,42,0,0,1,107.19,183a26.18,26.18,0,0,1,11.66,9.64q4.25,6.39,4.25,16v3.8H106.62v-3.8a15.15,15.15,0,0,0-2-8.18A11.44,11.44,0,0,0,99,195.94a23.73,23.73,0,0,0-8.74-1.46q-7.61,0-11.22,2.86a9.37,9.37,0,0,0-3.61,7.79,9,9,0,0,0,1.71,5.58,12.71,12.71,0,0,0,5.13,3.8A45.52,45.52,0,0,0,91,217.17l2.91.63a82.74,82.74,0,0,1,16.54,5.2,27.58,27.58,0,0,1,11,8.36q3.93,5.2,3.93,13.31a25,25,0,0,1-4.12,14.26,27.44,27.44,0,0,1-11.66,9.63A42.15,42.15,0,0,1,91.8,272.05Z"/><path class="cls-3" d="M146.78,108.73V20h55.76V35.22h-39V56.64h36v15.2h-36v36.89Z"/><path class="cls-3" d="M260.89,215a33.4,33.4,0,0,1-16.53-4.12,29.86,29.86,0,0,1-11.79-12q-4.38-7.92-4.37-19.33V158.21q0-17.1,9.63-26.29t26.11-9.19q16.35,0,25.28,8.68t8.94,23.51v.5H281.68v-1a18.22,18.22,0,0,0-2-8.49,14.41,14.41,0,0,0-5.89-6,19.87,19.87,0,0,0-9.88-2.22q-8.88,0-13.94,5.45T244.93,158v21.8q0,9.26,5.07,14.89t14.19,5.64q9.12,0,13.31-4.82a17.86,17.86,0,0,0,4.18-12.16V182h-21v-14.2h37.52v45.38H282.69v-8.49h-2.28a18.7,18.7,0,0,1-2.85,4.56,14.77,14.77,0,0,1-5.89,4.05Q267.74,215,260.89,215Z"/><path class="cls-2" d="M187.9,305.14l-8.21-50.4h6.05l7.13,46.51h1l9.28-46.51H214l9.22,46.51h1l7.13-46.51h6l-8.2,50.4h-10.8l-9.29-46.8h-1l-9.29,46.8Z"/><path class="cls-2" d="M260.19,305.14v-50.4h31v5.47h-25v16.85h23v5.47h-23v17.14h25.34v5.47Z"/><path class="cls-2" d="M312.75,305.14v-5.4h7.05v-39.6h-7.05v-5.4H338a18.31,18.31,0,0,1,7.81,1.59,12.61,12.61,0,0,1,5.33,4.42,11.71,11.71,0,0,1,1.91,6.66V268a11.14,11.14,0,0,1-1.37,5.8,11,11,0,0,1-3.24,3.52,14.49,14.49,0,0,1-3.67,1.84v1a12.25,12.25,0,0,1,3.74,1.69,10.29,10.29,0,0,1,3.28,3.56,11.63,11.63,0,0,1,1.33,5.84V292a12.18,12.18,0,0,1-7.38,11.62,18.65,18.65,0,0,1-7.81,1.55ZM325.85,277h11.66a10.33,10.33,0,0,0,6.92-2.2A7.23,7.23,0,0,0,347,269v-.72a7.33,7.33,0,0,0-2.56-5.87,10.32,10.32,0,0,0-6.95-2.2H325.85Zm0,22.68H337.3q4.76,0,7.27-2.23a7.68,7.68,0,0,0,2.52-6.05v-.65a7.68,7.68,0,0,0-2.52-6.05c-1.68-1.48-4.1-2.23-7.27-2.23H325.85Z"/></g></g></svg>